<svg width="32" height="32" viewBox="0 0 32 32" fill="none" xmlns="http://www.w3.org/2000/svg">
<circle cx="16" cy="16" r="16" transform="matrix(-1 0 0 1 32 0)" fill="white"/>
<path d="M12.9545 8.84013C12.7436 9.0511 12.6251 9.33719 12.6251 9.6355C12.6251 9.93381 12.7436 10.2199 12.9545 10.4309L18.5233 15.9996L12.9545 21.5684C12.7496 21.7806 12.6362 22.0647 12.6388 22.3597C12.6413 22.6547 12.7596 22.9368 12.9682 23.1454C13.1768 23.354 13.459 23.4723 13.7539 23.4749C14.0489 23.4774 14.3331 23.3641 14.5453 23.1591L20.9094 16.795C21.1203 16.584 21.2388 16.2979 21.2388 15.9996C21.2388 15.7013 21.1203 15.4152 20.9094 15.2043L14.5453 8.84013C14.3343 8.62922 14.0482 8.51074 13.7499 8.51074C13.4516 8.51074 13.1655 8.62922 12.9545 8.84013Z" fill="#333333"/>
</svg>
