<svg width="32" height="32" viewBox="0 0 32 32" fill="none" xmlns="http://www.w3.org/2000/svg">
<circle cx="16" cy="16" r="16" fill="white"/>
<path d="M19.0455 8.84013C19.2564 9.0511 19.3749 9.33719 19.3749 9.6355C19.3749 9.93381 19.2564 10.2199 19.0455 10.4309L13.4767 15.9996L19.0455 21.5684C19.2504 21.7806 19.3638 22.0647 19.3612 22.3597C19.3587 22.6547 19.2404 22.9368 19.0318 23.1454C18.8232 23.354 18.541 23.4723 18.2461 23.4749C17.9511 23.4774 17.6669 23.3641 17.4547 23.1591L11.0906 16.795C10.8797 16.584 10.7612 16.2979 10.7612 15.9996C10.7612 15.7013 10.8797 15.4152 11.0906 15.2043L17.4547 8.84013C17.6657 8.62922 17.9518 8.51074 18.2501 8.51074C18.5484 8.51074 18.8345 8.62922 19.0455 8.84013Z" fill="#333333"/>
</svg>
