<svg width="24" height="24" viewBox="0 0 24 24" fill="none" xmlns="http://www.w3.org/2000/svg">
<path d="M16.4643 3C14.6205 3 13.0063 3.79286 12 5.13304C10.9938 3.79286 9.37946 3 7.53571 3C6.06806 3.00165 4.66099 3.58541 3.6232 4.6232C2.58541 5.66099 2.00165 7.06806 2 8.53571C2 14.7857 11.267 19.8446 11.6616 20.0536C11.7656 20.1095 11.8819 20.1388 12 20.1388C12.1181 20.1388 12.2344 20.1095 12.3384 20.0536C12.733 19.8446 22 14.7857 22 8.53571C21.9983 7.06806 21.4146 5.66099 20.3768 4.6232C19.339 3.58541 17.9319 3.00165 16.4643 3ZM12 18.6071C10.3696 17.6571 3.42857 13.3295 3.42857 8.53571C3.42999 7.44687 3.86316 6.40302 4.63309 5.63309C5.40302 4.86316 6.44687 4.42999 7.53571 4.42857C9.27232 4.42857 10.7304 5.35357 11.3393 6.83929C11.3931 6.97029 11.4846 7.08235 11.6023 7.1612C11.7199 7.24006 11.8584 7.28217 12 7.28217C12.1416 7.28217 12.2801 7.24006 12.3977 7.1612C12.5154 7.08235 12.6069 6.97029 12.6607 6.83929C13.2696 5.35089 14.7277 4.42857 16.4643 4.42857C17.5531 4.42999 18.597 4.86316 19.3669 5.63309C20.1368 6.40302 20.57 7.44687 20.5714 8.53571C20.5714 13.3223 13.6286 17.6563 12 18.6071Z" fill="#777777"/>
</svg>
