<svg width="20" height="20" viewBox="0 0 20 20" fill="none" xmlns="http://www.w3.org/2000/svg">
<g clip-path="url(#clip0_2178_499)">
<rect width="20" height="20" fill="#333333"/>
<path d="M10.7833 10.0002L15.3889 5.39466C15.4799 5.28838 15.5275 5.15167 15.5221 5.01185C15.5167 4.87203 15.4587 4.7394 15.3598 4.64045C15.2608 4.54151 15.1282 4.48355 14.9884 4.47815C14.8486 4.47275 14.7118 4.52031 14.6056 4.61132L10 9.21688L5.39446 4.60577C5.28984 4.50115 5.14796 4.44238 5.00001 4.44238C4.85207 4.44238 4.71018 4.50115 4.60557 4.60577C4.50095 4.71038 4.44218 4.85227 4.44218 5.00021C4.44218 5.14816 4.50095 5.29004 4.60557 5.39466L9.21668 10.0002L4.60557 14.6058C4.54741 14.6556 4.50018 14.7169 4.46683 14.7858C4.43349 14.8547 4.41475 14.9298 4.41179 15.0063C4.40884 15.0828 4.42173 15.1591 4.44966 15.2304C4.47759 15.3017 4.51995 15.3664 4.5741 15.4206C4.62824 15.4747 4.69299 15.5171 4.76428 15.545C4.83557 15.5729 4.91186 15.5858 4.98838 15.5829C5.06489 15.5799 5.13996 15.5612 5.20888 15.5278C5.27781 15.4945 5.3391 15.4473 5.3889 15.3891L10 10.7835L14.6056 15.3891C14.7118 15.4801 14.8486 15.5277 14.9884 15.5223C15.1282 15.5169 15.2608 15.4589 15.3598 15.36C15.4587 15.261 15.5167 15.1284 15.5221 14.9886C15.5275 14.8488 15.4799 14.712 15.3889 14.6058L10.7833 10.0002Z" fill="white"/>
</g>
<defs>
<clipPath id="clip0_2178_499">
<rect width="20" height="20" fill="white"/>
</clipPath>
</defs>
</svg>
