<svg width="60" height="60" viewBox="0 0 60 60" fill="none" xmlns="http://www.w3.org/2000/svg">
<circle cx="30" cy="30" r="30" fill="white"/>
<path d="M40.4684 28.6985L31.3017 19.5318C31.1274 19.3649 30.9218 19.2341 30.6967 19.1468C30.2504 18.9634 29.7497 18.9634 29.3034 19.1468C29.0783 19.2341 28.8727 19.3649 28.6984 19.5318L19.5317 28.6985C19.3608 28.8694 19.2252 29.0723 19.1327 29.2957C19.0402 29.519 18.9926 29.7584 18.9926 30.0001C18.9926 30.4884 19.1865 30.9566 19.5317 31.3018C19.8769 31.647 20.3452 31.841 20.8334 31.841C21.3216 31.841 21.7898 31.647 22.1351 31.3018L28.1667 25.2518V39.1668C28.1667 39.653 28.3599 40.1193 28.7037 40.4632C29.0475 40.807 29.5138 41.0001 30.0001 41.0001C30.4863 41.0001 30.9526 40.807 31.2964 40.4632C31.6402 40.1193 31.8334 39.653 31.8334 39.1668V25.2518L37.8651 31.3018C38.0355 31.4736 38.2383 31.61 38.4617 31.7031C38.6851 31.7962 38.9247 31.8441 39.1667 31.8441C39.4087 31.8441 39.6484 31.7962 39.8718 31.7031C40.0952 31.61 40.298 31.4736 40.4684 31.3018C40.6402 31.1314 40.7766 30.9286 40.8697 30.7052C40.9628 30.4818 41.0107 30.2422 41.0107 30.0001C41.0107 29.7581 40.9628 29.5185 40.8697 29.2951C40.7766 29.0717 40.6402 28.8689 40.4684 28.6985Z" fill="#333333"/>
</svg>
