<svg width="24" height="24" viewBox="0 0 24 24" fill="none" xmlns="http://www.w3.org/2000/svg">
<path d="M13.7403 20.6567L14.2067 19.8686L13.0967 19.2112L12.6295 19.9993L13.7403 20.6567ZM10.2933 19.8686L10.7597 20.6567L11.8697 19.9993L11.4042 19.2112L10.2933 19.8686ZM12.6295 19.9993C12.5892 20.0637 12.5333 20.1168 12.4669 20.1536C12.4006 20.1904 12.3259 20.2097 12.25 20.2097C12.1741 20.2097 12.0994 20.1904 12.0331 20.1536C11.9667 20.1168 11.9108 20.0637 11.8705 19.9993L10.7597 20.6567C11.4248 21.7814 13.0743 21.7814 13.7403 20.6567L12.6295 19.9993ZM10.9593 4.2907H13.5407V3H10.9593V4.2907ZM20.2093 10.9593V11.8198H21.5V10.9593H20.2093ZM4.2907 11.8198V10.9593H3V11.8198H4.2907ZM3 11.8198C3 12.8136 3 13.5906 3.04302 14.2179C3.08605 14.8503 3.17467 15.3769 3.37688 15.864L4.56949 15.37C4.443 15.0672 4.369 14.6972 4.33028 14.1301C4.2907 13.557 4.2907 12.8308 4.2907 11.8198H3ZM8.63863 17.621C7.55788 17.6021 6.9917 17.5333 6.5477 17.3491L6.05465 18.5417C6.74733 18.8291 7.53551 18.8936 8.61626 18.9126L8.63863 17.621ZM3.37688 15.864C3.62553 16.4643 3.98998 17.0097 4.44944 17.4692C4.90889 17.9286 5.45434 18.2931 6.05465 18.5417L6.5477 17.3491C5.65168 16.978 4.94065 16.2661 4.56949 15.37L3.37688 15.864ZM20.2093 11.8198C20.2093 12.8308 20.2093 13.557 20.1697 14.1301C20.131 14.6972 20.057 15.0672 19.9314 15.37L21.1231 15.864C21.3253 15.3769 21.414 14.8503 21.4578 14.2179C21.5009 13.5906 21.5 12.8136 21.5 11.8198H20.2093ZM15.8837 18.9109C16.9645 18.8928 17.7527 18.8291 18.4453 18.5417L17.9514 17.3491C17.5083 17.5333 16.9421 17.6021 15.8622 17.621L15.8837 18.9109ZM19.9314 15.37C19.5602 16.2661 18.8483 16.978 17.9523 17.3491L18.4453 18.5417C19.0457 18.2931 19.5911 17.9286 20.0506 17.4692C20.51 17.0097 20.8745 16.4643 21.1231 15.864L19.9314 15.37ZM13.5407 4.2907C14.9613 4.2907 15.9818 4.2907 16.7778 4.36728C17.5642 4.44214 18.0642 4.58498 18.4634 4.82935L19.1372 3.72881C18.5013 3.33988 17.7802 3.16607 16.9 3.08174C16.0292 2.99914 14.9364 3 13.5407 3V4.2907ZM21.5 10.9593C21.5 9.56363 21.5 8.4717 21.4174 7.60005C21.3339 6.71979 21.1601 5.99786 20.7712 5.36284L19.6698 6.03658C19.915 6.43584 20.0579 6.93577 20.1327 7.72309C20.2084 8.51816 20.2093 9.53867 20.2093 10.9593H21.5ZM18.4626 4.82935C18.9549 5.13077 19.3689 5.54446 19.6707 6.03658L20.7712 5.36284C20.3631 4.69682 19.8032 4.13687 19.1372 3.72881L18.4626 4.82935ZM10.9593 3C9.56363 3 8.4717 3 7.60005 3.08174C6.71979 3.16607 5.99786 3.33988 5.36284 3.72881L6.03658 4.83021C6.43584 4.58498 6.93577 4.44214 7.72309 4.36728C8.51816 4.29156 9.53867 4.2907 10.9593 4.2907V3ZM4.2907 10.9593C4.2907 9.53867 4.2907 8.51816 4.36728 7.72223C4.44214 6.93577 4.58498 6.43584 4.82935 6.03658L3.72881 5.3637C3.33988 5.99872 3.16607 6.71979 3.08174 7.60005C3 8.47256 3 9.56363 3 10.9593H4.2907ZM5.36284 3.72881C4.69682 4.13687 4.13687 4.69768 3.72881 5.3637L4.83021 6.03658C5.13149 5.54466 5.54487 5.13098 6.03658 4.82935L5.36284 3.72881ZM11.4033 19.2112C11.2295 18.916 11.0763 18.6553 10.9266 18.4505C10.7726 18.226 10.5726 18.0368 10.3398 17.8955L9.69098 19.0115C9.73142 19.0356 9.78735 19.0787 9.88372 19.2112C9.98784 19.354 10.1057 19.5519 10.2933 19.8686L11.4033 19.2112ZM8.61626 18.9109C8.99486 18.9177 9.23321 18.9229 9.41563 18.9427C9.586 18.9616 9.65226 18.9892 9.69098 19.0115L10.3398 17.8955C10.0988 17.762 9.83216 17.6816 9.5576 17.6597C9.30119 17.6313 8.99314 17.627 8.63863 17.621L8.61626 18.9109ZM14.2067 19.8686C14.3943 19.5528 14.5122 19.354 14.6163 19.2112C14.7127 19.0787 14.7686 19.0356 14.809 19.0115L14.1602 17.8955C13.9107 18.0418 13.73 18.2354 13.5734 18.4505C13.4245 18.6553 13.2705 18.9152 13.0958 19.2112L14.2067 19.8686ZM15.8622 17.621C15.5077 17.627 15.1988 17.6313 14.9424 17.6597C14.6748 17.6899 14.4123 17.7492 14.1602 17.8955L14.809 19.0115C14.8477 18.9892 14.914 18.9616 15.0844 18.9427C15.2668 18.9229 15.506 18.9169 15.8846 18.9109L15.8622 17.621Z" fill="#777777"/>
<path d="M8.80811 11.3892H8.81585M12.2422 11.3892H12.25M15.6841 11.3892H15.6918" stroke="#777777" stroke-width="2" stroke-linecap="round" stroke-linejoin="round"/>
</svg>
