<svg width="122" height="68" viewBox="0 0 122 68" fill="none" xmlns="http://www.w3.org/2000/svg">
<path d="M117.334 67.272C113.43 67.272 110.902 65.544 110.902 60.712V51.432H107.414V46.344H110.902V39.624H116.982V46.344H121.846V51.432H116.982V60.424C116.982 61.512 117.622 62.088 118.646 62.12C119.606 62.152 120.854 62.024 121.526 61.768L121.846 66.408C120.726 66.92 119.158 67.272 117.334 67.272Z" fill="white"/>
<path d="M105.971 57.8639H94.1947V58.9199C94.1947 61.0959 95.9867 62.3759 98.6427 62.3759C101.011 62.3759 102.803 61.7999 104.147 60.9359L104.787 65.4799C103.379 66.5359 100.755 67.2399 97.3947 67.2399C93.3947 67.2399 88.1787 65.0639 88.1787 58.0559V54.0559C88.1787 47.2399 93.2027 45.1919 97.2987 45.1919C101.747 45.1919 106.131 46.9199 106.131 55.3999C106.131 56.5839 106.067 57.3199 105.971 57.8639ZM97.3307 50.0559C95.7627 50.0559 94.1947 51.0799 94.1947 53.3519V53.9919H100.243V53.3519C100.243 51.0799 98.8987 50.0559 97.3307 50.0559Z" fill="white"/>
<path d="M80.7026 45.7041H88.0306L80.4466 54.4081L88.0306 66.7281H81.4386L76.6706 58.7601L74.4626 61.2881V66.7281H68.3186V38.6641H74.4626V53.3521L80.7026 45.7041Z" fill="white"/>
<path d="M58.6821 66.7279H52.5061V45.7039H58.3941V47.3039C59.4821 45.7999 61.4021 45.1919 62.9701 45.1919C64.2501 45.1919 65.2421 45.4799 66.0741 46.1199L65.7541 51.5279C64.8581 51.0799 63.7381 50.8879 62.5541 50.8879C60.1541 50.8879 58.7781 52.0079 58.6821 53.9279V66.7279Z" fill="white"/>
<path d="M40.2577 45.1919C44.8977 45.1919 48.9937 46.8239 48.9937 53.7359V66.7279H44.2577L44.0017 65.3839C42.7857 66.5359 40.7377 67.2719 38.1137 67.2719C35.4577 67.2719 31.5537 65.6719 31.5537 60.4879C31.5537 55.4959 35.2337 53.9919 40.0337 53.9919H43.0097V52.7759C43.0097 50.6959 41.4417 50.1839 39.4257 50.1839C37.4417 50.1839 35.0097 51.1119 33.3777 52.1679L32.7377 47.4959C34.8497 46.0239 37.5697 45.1919 40.2577 45.1919ZM40.1617 62.6639C41.4097 62.6639 43.0097 61.9599 43.0097 60.2959V58.3759H40.4177C38.5617 58.3759 37.5697 59.0479 37.5697 60.5519C37.5697 61.9279 38.5617 62.6639 40.1617 62.6639Z" fill="white"/>
<path d="M26.464 38.6641L29.1521 66.7281H23.296L21.824 48.6801L18.208 65.0001H11.744L8.16005 48.8721L6.65605 66.7281H0.800049L3.48805 38.6641H10.848L14.976 57.4161L19.104 38.6641H26.464Z" fill="white"/>
<path d="M110.459 29.2399C106.203 29.2399 101.179 27.2559 101.179 20.3759V16.0559C101.179 9.17589 106.107 7.19189 110.459 7.19189C114.715 7.19189 119.739 9.17589 119.739 16.0559V20.3759C119.739 27.2559 114.715 29.2399 110.459 29.2399ZM110.459 23.9919C111.835 23.9919 113.627 23.2559 113.627 20.9839V15.4479C113.627 13.1759 111.835 12.4399 110.459 12.4399C109.083 12.4399 107.291 13.1759 107.291 15.4479V20.9839C107.291 23.2559 109.083 23.9919 110.459 23.9919Z" fill="white"/>
<path d="M86.1791 28.7279H80.1311V7.70389H85.8911V9.27189C87.1711 7.83189 89.1551 7.19189 91.1071 7.19189C94.9791 7.19189 98.3071 9.27189 98.3071 16.0239V28.7279H92.1631V15.6719C92.1631 13.4959 90.9791 12.3759 89.1871 12.3759C87.3951 12.3759 86.1791 13.4639 86.1791 15.5119V28.7279Z" fill="white"/>
<path d="M64.4321 28.7281H58.2561V0.664062H64.4321V9.04806C65.5521 7.76806 67.3761 7.19206 69.3281 7.19206C73.2001 7.19206 76.6241 9.27206 76.6241 16.0241V28.7281H70.3521V15.6081C70.3521 13.4321 69.1041 12.3761 67.4081 12.3761C65.7121 12.3761 64.4321 13.4001 64.4321 15.4481V28.7281Z" fill="white"/>
<path d="M48.6135 29.2399C44.6775 29.2399 39.3975 27.2239 39.3975 19.8959V16.5359C39.3975 9.20789 44.6775 7.19189 48.6135 7.19189C51.5575 7.19189 53.5735 7.79989 54.9815 8.66389L54.3415 13.3359C53.3175 12.7279 51.7495 12.3759 49.5415 12.3759C47.2055 12.3759 45.5095 13.6559 45.5095 16.4719V19.9599C45.5095 22.7759 47.2055 24.0559 49.5415 24.0559C51.5895 24.0559 53.5415 23.5759 54.7255 22.8399L55.3655 27.6719C53.7975 28.6319 51.5575 29.2399 48.6135 29.2399Z" fill="white"/>
<path d="M36.6895 19.8639H24.9135V20.9199C24.9135 23.0959 26.7055 24.3759 29.3615 24.3759C31.7295 24.3759 33.5215 23.7999 34.8655 22.9359L35.5055 27.4799C34.0975 28.5359 31.4735 29.2399 28.1135 29.2399C24.1135 29.2399 18.8975 27.0639 18.8975 20.0559V16.0559C18.8975 9.23989 23.9215 7.19189 28.0175 7.19189C32.4655 7.19189 36.8495 8.9199 36.8495 17.3999C36.8495 18.5839 36.7855 19.3199 36.6895 19.8639ZM28.0495 12.0559C26.4815 12.0559 24.9135 13.0799 24.9135 15.3519V15.9919H30.9615V15.3519C30.9615 13.0799 29.6175 12.0559 28.0495 12.0559Z" fill="white"/>
<path d="M13.568 28.7281H7.232V5.94406H0V0.664062H20.832V5.94406H13.568V28.7281Z" fill="white"/>
</svg>
