<svg width="123" height="68" viewBox="0 0 123 68" fill="none" xmlns="http://www.w3.org/2000/svg">
<path d="M117.654 67.272C113.75 67.272 111.222 65.544 111.222 60.712V51.432H107.734V46.344H111.222V39.624H117.302V46.344H122.166V51.432H117.302V60.424C117.302 61.512 117.942 62.088 118.966 62.12C119.926 62.152 121.174 62.024 121.846 61.768L122.166 66.408C121.046 66.92 119.478 67.272 117.654 67.272Z" fill="black"/>
<path d="M106.291 57.8639H94.5148V58.9199C94.5148 61.0959 96.3068 62.3759 98.9628 62.3759C101.331 62.3759 103.123 61.7999 104.467 60.9359L105.107 65.4799C103.699 66.5359 101.075 67.2399 97.7148 67.2399C93.7148 67.2399 88.4988 65.0639 88.4988 58.0559V54.0559C88.4988 47.2399 93.5228 45.1919 97.6188 45.1919C102.067 45.1919 106.451 46.9199 106.451 55.3999C106.451 56.5839 106.387 57.3199 106.291 57.8639ZM97.6508 50.0559C96.0828 50.0559 94.5148 51.0799 94.5148 53.3519V53.9919H100.563V53.3519C100.563 51.0799 99.2188 50.0559 97.6508 50.0559Z" fill="black"/>
<path d="M81.0227 45.7041H88.3507L80.7667 54.4081L88.3507 66.7281H81.7587L76.9907 58.7601L74.7827 61.2881V66.7281H68.6387V38.6641H74.7827V53.3521L81.0227 45.7041Z" fill="black"/>
<path d="M59.0022 66.7279H52.8262V45.7039H58.7142V47.3039C59.8022 45.7999 61.7222 45.1919 63.2902 45.1919C64.5702 45.1919 65.5622 45.4799 66.3942 46.1199L66.0742 51.5279C65.1782 51.0799 64.0582 50.8879 62.8742 50.8879C60.4742 50.8879 59.0982 52.0079 59.0022 53.9279V66.7279Z" fill="black"/>
<path d="M40.5778 45.1919C45.2178 45.1919 49.3138 46.8239 49.3138 53.7359V66.7279H44.5778L44.3218 65.3839C43.1058 66.5359 41.0578 67.2719 38.4338 67.2719C35.7778 67.2719 31.8738 65.6719 31.8738 60.4879C31.8738 55.4959 35.5538 53.9919 40.3538 53.9919H43.3298V52.7759C43.3298 50.6959 41.7618 50.1839 39.7458 50.1839C37.7618 50.1839 35.3298 51.1119 33.6978 52.1679L33.0578 47.4959C35.1698 46.0239 37.8898 45.1919 40.5778 45.1919ZM40.4818 62.6639C41.7298 62.6639 43.3298 61.9599 43.3298 60.2959V58.3759H40.7378C38.8818 58.3759 37.8898 59.0479 37.8898 60.5519C37.8898 61.9279 38.8818 62.6639 40.4818 62.6639Z" fill="black"/>
<path d="M26.7841 38.6641L29.4721 66.7281H23.6161L22.1441 48.6801L18.5281 65.0001H12.0641L8.48012 48.8721L6.97612 66.7281H1.12012L3.80812 38.6641H11.1681L15.2961 57.4161L19.4241 38.6641H26.7841Z" fill="black"/>
<path d="M110.779 29.2399C106.523 29.2399 101.499 27.2559 101.499 20.3759V16.0559C101.499 9.17589 106.427 7.19189 110.779 7.19189C115.035 7.19189 120.059 9.17589 120.059 16.0559V20.3759C120.059 27.2559 115.035 29.2399 110.779 29.2399ZM110.779 23.9919C112.155 23.9919 113.947 23.2559 113.947 20.9839V15.4479C113.947 13.1759 112.155 12.4399 110.779 12.4399C109.403 12.4399 107.611 13.1759 107.611 15.4479V20.9839C107.611 23.2559 109.403 23.9919 110.779 23.9919Z" fill="black"/>
<path d="M86.4992 28.7279H80.4512V7.70389H86.2112V9.27189C87.4912 7.83189 89.4752 7.19189 91.4272 7.19189C95.2992 7.19189 98.6272 9.27189 98.6272 16.0239V28.7279H92.4832V15.6719C92.4832 13.4959 91.2992 12.3759 89.5072 12.3759C87.7152 12.3759 86.4992 13.4639 86.4992 15.5119V28.7279Z" fill="black"/>
<path d="M64.7522 28.7281H58.5762V0.664062H64.7522V9.04806C65.8722 7.76806 67.6962 7.19206 69.6482 7.19206C73.5202 7.19206 76.9442 9.27206 76.9442 16.0241V28.7281H70.6722V15.6081C70.6722 13.4321 69.4242 12.3761 67.7282 12.3761C66.0322 12.3761 64.7522 13.4001 64.7522 15.4481V28.7281Z" fill="black"/>
<path d="M48.9335 29.2399C44.9975 29.2399 39.7175 27.2239 39.7175 19.8959V16.5359C39.7175 9.20789 44.9975 7.19189 48.9335 7.19189C51.8775 7.19189 53.8935 7.79989 55.3015 8.66389L54.6615 13.3359C53.6375 12.7279 52.0695 12.3759 49.8615 12.3759C47.5255 12.3759 45.8295 13.6559 45.8295 16.4719V19.9599C45.8295 22.7759 47.5255 24.0559 49.8615 24.0559C51.9095 24.0559 53.8615 23.5759 55.0455 22.8399L55.6855 27.6719C54.1175 28.6319 51.8775 29.2399 48.9335 29.2399Z" fill="black"/>
<path d="M37.0095 19.8639H25.2335V20.9199C25.2335 23.0959 27.0255 24.3759 29.6815 24.3759C32.0495 24.3759 33.8415 23.7999 35.1855 22.9359L35.8255 27.4799C34.4175 28.5359 31.7935 29.2399 28.4335 29.2399C24.4335 29.2399 19.2175 27.0639 19.2175 20.0559V16.0559C19.2175 9.23989 24.2415 7.19189 28.3375 7.19189C32.7855 7.19189 37.1695 8.9199 37.1695 17.3999C37.1695 18.5839 37.1055 19.3199 37.0095 19.8639ZM28.3695 12.0559C26.8015 12.0559 25.2335 13.0799 25.2335 15.3519V15.9919H31.2815V15.3519C31.2815 13.0799 29.9375 12.0559 28.3695 12.0559Z" fill="black"/>
<path d="M13.8881 28.7281H7.55207V5.94406H0.320068V0.664062H21.1521V5.94406H13.8881V28.7281Z" fill="black"/>
</svg>
